<mxfile host="app.diagrams.net" modified="2024-04-10T08:47:22.028Z" agent="Mozilla/5.0 (Windows NT 10.0; Win64; x64) AppleWebKit/537.36 (KHTML, like Gecko) Chrome/123.0.0.0 Safari/537.36" etag="D-HYML8R5owlzKRMVad_" version="24.2.3" type="github">
  <diagram id="R2lEEEUBdFMjLlhIrx00" name="Page-1">
    <mxGraphModel dx="2400" dy="1191" grid="1" gridSize="10" guides="1" tooltips="1" connect="1" arrows="1" fold="1" page="1" pageScale="1" pageWidth="827" pageHeight="1169" math="0" shadow="0" extFonts="Permanent Marker^https://fonts.googleapis.com/css?family=Permanent+Marker">
      <root>
        <mxCell id="0" />
        <mxCell id="1" parent="0" />
        <mxCell id="C-vyLk0tnHw3VtMMgP7b-2" value="role" style="shape=table;startSize=40;container=1;collapsible=1;childLayout=tableLayout;fixedRows=1;rowLines=0;fontStyle=1;align=center;resizeLast=1;" parent="1" vertex="1">
          <mxGeometry x="520" y="200" width="320" height="280" as="geometry" />
        </mxCell>
        <mxCell id="C-vyLk0tnHw3VtMMgP7b-3" value="" style="shape=partialRectangle;collapsible=0;dropTarget=0;pointerEvents=0;fillColor=none;points=[[0,0.5],[1,0.5]];portConstraint=eastwest;top=0;left=0;right=0;bottom=1;" parent="C-vyLk0tnHw3VtMMgP7b-2" vertex="1">
          <mxGeometry y="40" width="320" height="40" as="geometry" />
        </mxCell>
        <mxCell id="C-vyLk0tnHw3VtMMgP7b-4" value="PK" style="shape=partialRectangle;overflow=hidden;connectable=0;fillColor=none;top=0;left=0;bottom=0;right=0;fontStyle=1;" parent="C-vyLk0tnHw3VtMMgP7b-3" vertex="1">
          <mxGeometry width="30" height="40" as="geometry">
            <mxRectangle width="30" height="40" as="alternateBounds" />
          </mxGeometry>
        </mxCell>
        <mxCell id="C-vyLk0tnHw3VtMMgP7b-5" value="role_code VARCHAR(100) NOT NULL " style="shape=partialRectangle;overflow=hidden;connectable=0;fillColor=none;top=0;left=0;bottom=0;right=0;align=left;spacingLeft=6;fontStyle=1;" parent="C-vyLk0tnHw3VtMMgP7b-3" vertex="1">
          <mxGeometry x="30" width="290" height="40" as="geometry">
            <mxRectangle width="290" height="40" as="alternateBounds" />
          </mxGeometry>
        </mxCell>
        <mxCell id="omJrnw-WzWxWsnhf1Q-1-217" value="" style="shape=partialRectangle;collapsible=0;dropTarget=0;pointerEvents=0;fillColor=none;points=[[0,0.5],[1,0.5]];portConstraint=eastwest;top=0;left=0;right=0;bottom=0;" vertex="1" parent="C-vyLk0tnHw3VtMMgP7b-2">
          <mxGeometry y="80" width="320" height="40" as="geometry" />
        </mxCell>
        <mxCell id="omJrnw-WzWxWsnhf1Q-1-218" value="" style="shape=partialRectangle;overflow=hidden;connectable=0;fillColor=none;top=0;left=0;bottom=0;right=0;" vertex="1" parent="omJrnw-WzWxWsnhf1Q-1-217">
          <mxGeometry width="30" height="40" as="geometry">
            <mxRectangle width="30" height="40" as="alternateBounds" />
          </mxGeometry>
        </mxCell>
        <mxCell id="omJrnw-WzWxWsnhf1Q-1-219" value="status ENUM(&#39;ACTIVE&#39;, &#39;INACTIVE&#39;) NOT NULL" style="shape=partialRectangle;overflow=hidden;connectable=0;fillColor=none;top=0;left=0;bottom=0;right=0;align=left;spacingLeft=6;" vertex="1" parent="omJrnw-WzWxWsnhf1Q-1-217">
          <mxGeometry x="30" width="290" height="40" as="geometry">
            <mxRectangle width="290" height="40" as="alternateBounds" />
          </mxGeometry>
        </mxCell>
        <mxCell id="eaA5NtDQgevB4pogSYo6-16" value="" style="shape=partialRectangle;collapsible=0;dropTarget=0;pointerEvents=0;fillColor=none;points=[[0,0.5],[1,0.5]];portConstraint=eastwest;top=0;left=0;right=0;bottom=0;" vertex="1" parent="C-vyLk0tnHw3VtMMgP7b-2">
          <mxGeometry y="120" width="320" height="40" as="geometry" />
        </mxCell>
        <mxCell id="eaA5NtDQgevB4pogSYo6-17" value="" style="shape=partialRectangle;overflow=hidden;connectable=0;fillColor=none;top=0;left=0;bottom=0;right=0;" vertex="1" parent="eaA5NtDQgevB4pogSYo6-16">
          <mxGeometry width="30" height="40" as="geometry">
            <mxRectangle width="30" height="40" as="alternateBounds" />
          </mxGeometry>
        </mxCell>
        <mxCell id="eaA5NtDQgevB4pogSYo6-18" value="created_date TIMESTAMP NOT NULL" style="shape=partialRectangle;overflow=hidden;connectable=0;fillColor=none;top=0;left=0;bottom=0;right=0;align=left;spacingLeft=6;" vertex="1" parent="eaA5NtDQgevB4pogSYo6-16">
          <mxGeometry x="30" width="290" height="40" as="geometry">
            <mxRectangle width="290" height="40" as="alternateBounds" />
          </mxGeometry>
        </mxCell>
        <mxCell id="eaA5NtDQgevB4pogSYo6-19" value="" style="shape=partialRectangle;collapsible=0;dropTarget=0;pointerEvents=0;fillColor=none;points=[[0,0.5],[1,0.5]];portConstraint=eastwest;top=0;left=0;right=0;bottom=0;" vertex="1" parent="C-vyLk0tnHw3VtMMgP7b-2">
          <mxGeometry y="160" width="320" height="40" as="geometry" />
        </mxCell>
        <mxCell id="eaA5NtDQgevB4pogSYo6-20" value="" style="shape=partialRectangle;overflow=hidden;connectable=0;fillColor=none;top=0;left=0;bottom=0;right=0;" vertex="1" parent="eaA5NtDQgevB4pogSYo6-19">
          <mxGeometry width="30" height="40" as="geometry">
            <mxRectangle width="30" height="40" as="alternateBounds" />
          </mxGeometry>
        </mxCell>
        <mxCell id="eaA5NtDQgevB4pogSYo6-21" value="last_updated_date TIMESTAMPÂ NOT NULL" style="shape=partialRectangle;overflow=hidden;connectable=0;fillColor=none;top=0;left=0;bottom=0;right=0;align=left;spacingLeft=6;" vertex="1" parent="eaA5NtDQgevB4pogSYo6-19">
          <mxGeometry x="30" width="290" height="40" as="geometry">
            <mxRectangle width="290" height="40" as="alternateBounds" />
          </mxGeometry>
        </mxCell>
        <mxCell id="eaA5NtDQgevB4pogSYo6-22" value="" style="shape=partialRectangle;collapsible=0;dropTarget=0;pointerEvents=0;fillColor=none;points=[[0,0.5],[1,0.5]];portConstraint=eastwest;top=0;left=0;right=0;bottom=0;" vertex="1" parent="C-vyLk0tnHw3VtMMgP7b-2">
          <mxGeometry y="200" width="320" height="40" as="geometry" />
        </mxCell>
        <mxCell id="eaA5NtDQgevB4pogSYo6-23" value="" style="shape=partialRectangle;overflow=hidden;connectable=0;fillColor=none;top=0;left=0;bottom=0;right=0;" vertex="1" parent="eaA5NtDQgevB4pogSYo6-22">
          <mxGeometry width="30" height="40" as="geometry">
            <mxRectangle width="30" height="40" as="alternateBounds" />
          </mxGeometry>
        </mxCell>
        <mxCell id="eaA5NtDQgevB4pogSYo6-24" value="created_by VARCHAR(100) NOT NULL" style="shape=partialRectangle;overflow=hidden;connectable=0;fillColor=none;top=0;left=0;bottom=0;right=0;align=left;spacingLeft=6;" vertex="1" parent="eaA5NtDQgevB4pogSYo6-22">
          <mxGeometry x="30" width="290" height="40" as="geometry">
            <mxRectangle width="290" height="40" as="alternateBounds" />
          </mxGeometry>
        </mxCell>
        <mxCell id="eaA5NtDQgevB4pogSYo6-41" value="" style="shape=partialRectangle;collapsible=0;dropTarget=0;pointerEvents=0;fillColor=none;points=[[0,0.5],[1,0.5]];portConstraint=eastwest;top=0;left=0;right=0;bottom=0;" vertex="1" parent="C-vyLk0tnHw3VtMMgP7b-2">
          <mxGeometry y="240" width="320" height="40" as="geometry" />
        </mxCell>
        <mxCell id="eaA5NtDQgevB4pogSYo6-42" value="" style="shape=partialRectangle;overflow=hidden;connectable=0;fillColor=none;top=0;left=0;bottom=0;right=0;" vertex="1" parent="eaA5NtDQgevB4pogSYo6-41">
          <mxGeometry width="30" height="40" as="geometry">
            <mxRectangle width="30" height="40" as="alternateBounds" />
          </mxGeometry>
        </mxCell>
        <mxCell id="eaA5NtDQgevB4pogSYo6-43" value="last_updated_by VARCHAR(100) NOT NULL" style="shape=partialRectangle;overflow=hidden;connectable=0;fillColor=none;top=0;left=0;bottom=0;right=0;align=left;spacingLeft=6;" vertex="1" parent="eaA5NtDQgevB4pogSYo6-41">
          <mxGeometry x="30" width="290" height="40" as="geometry">
            <mxRectangle width="290" height="40" as="alternateBounds" />
          </mxGeometry>
        </mxCell>
        <mxCell id="C-vyLk0tnHw3VtMMgP7b-13" value="member_role" style="shape=table;startSize=40;container=1;collapsible=1;childLayout=tableLayout;fixedRows=1;rowLines=0;fontStyle=1;align=center;resizeLast=1;strokeWidth=1;" parent="1" vertex="1">
          <mxGeometry x="520" y="40" width="320" height="120" as="geometry" />
        </mxCell>
        <mxCell id="C-vyLk0tnHw3VtMMgP7b-14" value="" style="shape=partialRectangle;collapsible=0;dropTarget=0;pointerEvents=0;fillColor=none;points=[[0,0.5],[1,0.5]];portConstraint=eastwest;top=0;left=0;right=0;bottom=1;" parent="C-vyLk0tnHw3VtMMgP7b-13" vertex="1">
          <mxGeometry y="40" width="320" height="40" as="geometry" />
        </mxCell>
        <mxCell id="C-vyLk0tnHw3VtMMgP7b-15" value="PK" style="shape=partialRectangle;overflow=hidden;connectable=0;fillColor=default;top=1;left=1;bottom=1;right=1;fontStyle=1;rowspan=2;colspan=1;container=1;" parent="C-vyLk0tnHw3VtMMgP7b-14" vertex="1">
          <mxGeometry width="30" height="80" as="geometry">
            <mxRectangle width="30" height="40" as="alternateBounds" />
          </mxGeometry>
        </mxCell>
        <mxCell id="C-vyLk0tnHw3VtMMgP7b-16" value="member_id INT(11) NOT NULL " style="shape=partialRectangle;overflow=hidden;connectable=0;fillColor=none;top=0;left=0;bottom=0;right=0;align=left;spacingLeft=6;fontStyle=1;" parent="C-vyLk0tnHw3VtMMgP7b-14" vertex="1">
          <mxGeometry x="30" width="290" height="40" as="geometry">
            <mxRectangle width="290" height="40" as="alternateBounds" />
          </mxGeometry>
        </mxCell>
        <mxCell id="omJrnw-WzWxWsnhf1Q-1-7" value="" style="shape=partialRectangle;collapsible=0;dropTarget=0;pointerEvents=0;fillColor=none;points=[[0,0.5],[1,0.5]];portConstraint=eastwest;top=0;left=0;right=0;bottom=1;" vertex="1" parent="C-vyLk0tnHw3VtMMgP7b-13">
          <mxGeometry y="80" width="320" height="40" as="geometry" />
        </mxCell>
        <mxCell id="omJrnw-WzWxWsnhf1Q-1-8" value="PK" style="shape=partialRectangle;overflow=hidden;connectable=0;fillColor=none;top=0;left=0;bottom=0;right=0;fontStyle=1;strokeWidth=1;strokeColor=default;" vertex="1" visible="0" parent="omJrnw-WzWxWsnhf1Q-1-7">
          <mxGeometry width="30" height="40" as="geometry">
            <mxRectangle width="30" height="40" as="alternateBounds" />
          </mxGeometry>
        </mxCell>
        <mxCell id="omJrnw-WzWxWsnhf1Q-1-9" value="role_code VARCHAR(100) NOT NULL" style="shape=partialRectangle;overflow=hidden;connectable=0;fillColor=none;top=0;left=0;bottom=0;right=0;align=left;spacingLeft=6;fontStyle=1;" vertex="1" parent="omJrnw-WzWxWsnhf1Q-1-7">
          <mxGeometry x="30" width="290" height="40" as="geometry">
            <mxRectangle width="290" height="40" as="alternateBounds" />
          </mxGeometry>
        </mxCell>
        <mxCell id="C-vyLk0tnHw3VtMMgP7b-23" value="member" style="shape=table;startSize=40;container=1;collapsible=1;childLayout=tableLayout;fixedRows=1;rowLines=0;fontStyle=1;align=center;resizeLast=1;" parent="1" vertex="1">
          <mxGeometry x="120" y="40" width="320" height="420" as="geometry" />
        </mxCell>
        <mxCell id="C-vyLk0tnHw3VtMMgP7b-24" value="" style="shape=partialRectangle;collapsible=0;dropTarget=0;pointerEvents=0;fillColor=none;points=[[0,0.5],[1,0.5]];portConstraint=eastwest;top=0;left=0;right=0;bottom=1;" parent="C-vyLk0tnHw3VtMMgP7b-23" vertex="1">
          <mxGeometry y="40" width="320" height="60" as="geometry" />
        </mxCell>
        <mxCell id="C-vyLk0tnHw3VtMMgP7b-25" value="PK" style="shape=partialRectangle;overflow=hidden;connectable=0;fillColor=none;top=0;left=0;bottom=0;right=0;fontStyle=1;" parent="C-vyLk0tnHw3VtMMgP7b-24" vertex="1">
          <mxGeometry width="40" height="60" as="geometry">
            <mxRectangle width="40" height="60" as="alternateBounds" />
          </mxGeometry>
        </mxCell>
        <mxCell id="C-vyLk0tnHw3VtMMgP7b-26" value="member_id INT(11) NOT NULL " style="shape=partialRectangle;overflow=hidden;connectable=0;fillColor=none;top=0;left=0;bottom=0;right=0;align=left;spacingLeft=6;fontStyle=1;" parent="C-vyLk0tnHw3VtMMgP7b-24" vertex="1">
          <mxGeometry x="40" width="280" height="60" as="geometry">
            <mxRectangle width="280" height="60" as="alternateBounds" />
          </mxGeometry>
        </mxCell>
        <mxCell id="C-vyLk0tnHw3VtMMgP7b-27" value="" style="shape=partialRectangle;collapsible=0;dropTarget=0;pointerEvents=0;fillColor=none;points=[[0,0.5],[1,0.5]];portConstraint=eastwest;top=0;left=0;right=0;bottom=0;" parent="C-vyLk0tnHw3VtMMgP7b-23" vertex="1">
          <mxGeometry y="100" width="320" height="40" as="geometry" />
        </mxCell>
        <mxCell id="C-vyLk0tnHw3VtMMgP7b-28" value="" style="shape=partialRectangle;overflow=hidden;connectable=0;fillColor=none;top=0;left=0;bottom=0;right=0;" parent="C-vyLk0tnHw3VtMMgP7b-27" vertex="1">
          <mxGeometry width="40" height="40" as="geometry">
            <mxRectangle width="40" height="40" as="alternateBounds" />
          </mxGeometry>
        </mxCell>
        <mxCell id="C-vyLk0tnHw3VtMMgP7b-29" value="username VARCHAR(250) DEFAULTÂ  NULL" style="shape=partialRectangle;overflow=hidden;connectable=0;fillColor=none;top=0;left=0;bottom=0;right=0;align=left;spacingLeft=6;" parent="C-vyLk0tnHw3VtMMgP7b-27" vertex="1">
          <mxGeometry x="40" width="280" height="40" as="geometry">
            <mxRectangle width="280" height="40" as="alternateBounds" />
          </mxGeometry>
        </mxCell>
        <mxCell id="YJ6gxBUHmD1w-bRFgM9Q-6" value="" style="shape=partialRectangle;collapsible=0;dropTarget=0;pointerEvents=0;fillColor=none;points=[[0,0.5],[1,0.5]];portConstraint=eastwest;top=0;left=0;right=0;bottom=0;" parent="C-vyLk0tnHw3VtMMgP7b-23" vertex="1">
          <mxGeometry y="140" width="320" height="40" as="geometry" />
        </mxCell>
        <mxCell id="YJ6gxBUHmD1w-bRFgM9Q-7" value="" style="shape=partialRectangle;overflow=hidden;connectable=0;fillColor=none;top=0;left=0;bottom=0;right=0;" parent="YJ6gxBUHmD1w-bRFgM9Q-6" vertex="1">
          <mxGeometry width="40" height="40" as="geometry">
            <mxRectangle width="40" height="40" as="alternateBounds" />
          </mxGeometry>
        </mxCell>
        <mxCell id="YJ6gxBUHmD1w-bRFgM9Q-8" value="email VARCHAR(250) NOT NULL" style="shape=partialRectangle;overflow=hidden;connectable=0;fillColor=none;top=0;left=0;bottom=0;right=0;align=left;spacingLeft=6;" parent="YJ6gxBUHmD1w-bRFgM9Q-6" vertex="1">
          <mxGeometry x="40" width="280" height="40" as="geometry">
            <mxRectangle width="280" height="40" as="alternateBounds" />
          </mxGeometry>
        </mxCell>
        <mxCell id="YJ6gxBUHmD1w-bRFgM9Q-22" value="" style="shape=partialRectangle;collapsible=0;dropTarget=0;pointerEvents=0;fillColor=none;points=[[0,0.5],[1,0.5]];portConstraint=eastwest;top=0;left=0;right=0;bottom=0;" parent="C-vyLk0tnHw3VtMMgP7b-23" vertex="1">
          <mxGeometry y="180" width="320" height="40" as="geometry" />
        </mxCell>
        <mxCell id="YJ6gxBUHmD1w-bRFgM9Q-23" value="" style="shape=partialRectangle;overflow=hidden;connectable=0;fillColor=none;top=0;left=0;bottom=0;right=0;" parent="YJ6gxBUHmD1w-bRFgM9Q-22" vertex="1">
          <mxGeometry width="40" height="40" as="geometry">
            <mxRectangle width="40" height="40" as="alternateBounds" />
          </mxGeometry>
        </mxCell>
        <mxCell id="YJ6gxBUHmD1w-bRFgM9Q-24" value="password VARCHAR(250) NOT NULL" style="shape=partialRectangle;overflow=hidden;connectable=0;fillColor=none;top=0;left=0;bottom=0;right=0;align=left;spacingLeft=6;" parent="YJ6gxBUHmD1w-bRFgM9Q-22" vertex="1">
          <mxGeometry x="40" width="280" height="40" as="geometry">
            <mxRectangle width="280" height="40" as="alternateBounds" />
          </mxGeometry>
        </mxCell>
        <mxCell id="omJrnw-WzWxWsnhf1Q-1-180" value="" style="shape=partialRectangle;collapsible=0;dropTarget=0;pointerEvents=0;fillColor=none;points=[[0,0.5],[1,0.5]];portConstraint=eastwest;top=0;left=0;right=0;bottom=0;" vertex="1" parent="C-vyLk0tnHw3VtMMgP7b-23">
          <mxGeometry y="220" width="320" height="40" as="geometry" />
        </mxCell>
        <mxCell id="omJrnw-WzWxWsnhf1Q-1-181" value="" style="shape=partialRectangle;overflow=hidden;connectable=0;fillColor=none;top=0;left=0;bottom=0;right=0;" vertex="1" parent="omJrnw-WzWxWsnhf1Q-1-180">
          <mxGeometry width="40" height="40" as="geometry">
            <mxRectangle width="40" height="40" as="alternateBounds" />
          </mxGeometry>
        </mxCell>
        <mxCell id="omJrnw-WzWxWsnhf1Q-1-182" value="status ENUM(&#39;ACTIVE&#39;, &#39;INACTIVE&#39;) NOT NULL" style="shape=partialRectangle;overflow=hidden;connectable=0;fillColor=none;top=0;left=0;bottom=0;right=0;align=left;spacingLeft=6;" vertex="1" parent="omJrnw-WzWxWsnhf1Q-1-180">
          <mxGeometry x="40" width="280" height="40" as="geometry">
            <mxRectangle width="280" height="40" as="alternateBounds" />
          </mxGeometry>
        </mxCell>
        <mxCell id="omJrnw-WzWxWsnhf1Q-1-157" value="" style="shape=partialRectangle;collapsible=0;dropTarget=0;pointerEvents=0;fillColor=none;points=[[0,0.5],[1,0.5]];portConstraint=eastwest;top=0;left=0;right=0;bottom=0;" vertex="1" parent="C-vyLk0tnHw3VtMMgP7b-23">
          <mxGeometry y="260" width="320" height="40" as="geometry" />
        </mxCell>
        <mxCell id="omJrnw-WzWxWsnhf1Q-1-158" value="" style="shape=partialRectangle;overflow=hidden;connectable=0;fillColor=none;top=0;left=0;bottom=0;right=0;" vertex="1" parent="omJrnw-WzWxWsnhf1Q-1-157">
          <mxGeometry width="40" height="40" as="geometry">
            <mxRectangle width="40" height="40" as="alternateBounds" />
          </mxGeometry>
        </mxCell>
        <mxCell id="omJrnw-WzWxWsnhf1Q-1-159" value="created_date TIMESTAMP NOT NULL" style="shape=partialRectangle;overflow=hidden;connectable=0;fillColor=none;top=0;left=0;bottom=0;right=0;align=left;spacingLeft=6;" vertex="1" parent="omJrnw-WzWxWsnhf1Q-1-157">
          <mxGeometry x="40" width="280" height="40" as="geometry">
            <mxRectangle width="280" height="40" as="alternateBounds" />
          </mxGeometry>
        </mxCell>
        <mxCell id="eaA5NtDQgevB4pogSYo6-44" value="" style="shape=partialRectangle;collapsible=0;dropTarget=0;pointerEvents=0;fillColor=none;points=[[0,0.5],[1,0.5]];portConstraint=eastwest;top=0;left=0;right=0;bottom=0;" vertex="1" parent="C-vyLk0tnHw3VtMMgP7b-23">
          <mxGeometry y="300" width="320" height="40" as="geometry" />
        </mxCell>
        <mxCell id="eaA5NtDQgevB4pogSYo6-45" value="" style="shape=partialRectangle;overflow=hidden;connectable=0;fillColor=none;top=0;left=0;bottom=0;right=0;" vertex="1" parent="eaA5NtDQgevB4pogSYo6-44">
          <mxGeometry width="40" height="40" as="geometry">
            <mxRectangle width="40" height="40" as="alternateBounds" />
          </mxGeometry>
        </mxCell>
        <mxCell id="eaA5NtDQgevB4pogSYo6-46" value="last_updated_date TIMESTAMPÂ NOT NULL" style="shape=partialRectangle;overflow=hidden;connectable=0;fillColor=none;top=0;left=0;bottom=0;right=0;align=left;spacingLeft=6;" vertex="1" parent="eaA5NtDQgevB4pogSYo6-44">
          <mxGeometry x="40" width="280" height="40" as="geometry">
            <mxRectangle width="280" height="40" as="alternateBounds" />
          </mxGeometry>
        </mxCell>
        <mxCell id="omJrnw-WzWxWsnhf1Q-1-1" value="" style="shape=partialRectangle;collapsible=0;dropTarget=0;pointerEvents=0;fillColor=none;points=[[0,0.5],[1,0.5]];portConstraint=eastwest;top=0;left=0;right=0;bottom=0;" vertex="1" parent="C-vyLk0tnHw3VtMMgP7b-23">
          <mxGeometry y="340" width="320" height="40" as="geometry" />
        </mxCell>
        <mxCell id="omJrnw-WzWxWsnhf1Q-1-2" value="" style="shape=partialRectangle;overflow=hidden;connectable=0;fillColor=none;top=0;left=0;bottom=0;right=0;" vertex="1" parent="omJrnw-WzWxWsnhf1Q-1-1">
          <mxGeometry width="40" height="40" as="geometry">
            <mxRectangle width="40" height="40" as="alternateBounds" />
          </mxGeometry>
        </mxCell>
        <mxCell id="omJrnw-WzWxWsnhf1Q-1-3" value="created_by VARCHAR(100) NOT NULL" style="shape=partialRectangle;overflow=hidden;connectable=0;fillColor=none;top=0;left=0;bottom=0;right=0;align=left;spacingLeft=6;" vertex="1" parent="omJrnw-WzWxWsnhf1Q-1-1">
          <mxGeometry x="40" width="280" height="40" as="geometry">
            <mxRectangle width="280" height="40" as="alternateBounds" />
          </mxGeometry>
        </mxCell>
        <mxCell id="omJrnw-WzWxWsnhf1Q-1-4" value="" style="shape=partialRectangle;collapsible=0;dropTarget=0;pointerEvents=0;fillColor=none;points=[[0,0.5],[1,0.5]];portConstraint=eastwest;top=0;left=0;right=0;bottom=0;" vertex="1" parent="C-vyLk0tnHw3VtMMgP7b-23">
          <mxGeometry y="380" width="320" height="40" as="geometry" />
        </mxCell>
        <mxCell id="omJrnw-WzWxWsnhf1Q-1-5" value="" style="shape=partialRectangle;overflow=hidden;connectable=0;fillColor=none;top=0;left=0;bottom=0;right=0;" vertex="1" parent="omJrnw-WzWxWsnhf1Q-1-4">
          <mxGeometry width="40" height="40" as="geometry">
            <mxRectangle width="40" height="40" as="alternateBounds" />
          </mxGeometry>
        </mxCell>
        <mxCell id="omJrnw-WzWxWsnhf1Q-1-6" value="last_updated_by VARCHAR(100) NOT NULL" style="shape=partialRectangle;overflow=hidden;connectable=0;fillColor=none;top=0;left=0;bottom=0;right=0;align=left;spacingLeft=6;" vertex="1" parent="omJrnw-WzWxWsnhf1Q-1-4">
          <mxGeometry x="40" width="280" height="40" as="geometry">
            <mxRectangle width="280" height="40" as="alternateBounds" />
          </mxGeometry>
        </mxCell>
        <mxCell id="omJrnw-WzWxWsnhf1Q-1-20" value="" style="endArrow=ERmandOne;startArrow=ERzeroToMany;html=1;rounded=1;strokeWidth=1;edgeStyle=elbowEdgeStyle;curved=0;endFill=0;startFill=0;exitX=0;exitY=0.5;exitDx=0;exitDy=0;entryX=0;entryY=0.5;entryDx=0;entryDy=0;" edge="1" parent="1" source="omJrnw-WzWxWsnhf1Q-1-7" target="C-vyLk0tnHw3VtMMgP7b-3">
          <mxGeometry width="50" height="50" relative="1" as="geometry">
            <mxPoint x="510" y="140" as="sourcePoint" />
            <mxPoint x="520" y="301.75" as="targetPoint" />
            <Array as="points">
              <mxPoint x="460" y="280" />
              <mxPoint x="460" y="280" />
              <mxPoint x="460" y="31.75" />
            </Array>
          </mxGeometry>
        </mxCell>
        <mxCell id="omJrnw-WzWxWsnhf1Q-1-38" value="permisison" style="shape=table;startSize=40;container=1;collapsible=1;childLayout=tableLayout;fixedRows=1;rowLines=0;fontStyle=1;align=center;resizeLast=1;" vertex="1" parent="1">
          <mxGeometry x="921" y="200" width="320" height="280" as="geometry" />
        </mxCell>
        <mxCell id="omJrnw-WzWxWsnhf1Q-1-39" value="" style="shape=partialRectangle;collapsible=0;dropTarget=0;pointerEvents=0;fillColor=none;points=[[0,0.5],[1,0.5]];portConstraint=eastwest;top=0;left=0;right=0;bottom=1;" vertex="1" parent="omJrnw-WzWxWsnhf1Q-1-38">
          <mxGeometry y="40" width="320" height="40" as="geometry" />
        </mxCell>
        <mxCell id="omJrnw-WzWxWsnhf1Q-1-40" value="PK" style="shape=partialRectangle;overflow=hidden;connectable=0;fillColor=none;top=0;left=0;bottom=0;right=0;fontStyle=1;" vertex="1" parent="omJrnw-WzWxWsnhf1Q-1-39">
          <mxGeometry width="30" height="40" as="geometry">
            <mxRectangle width="30" height="40" as="alternateBounds" />
          </mxGeometry>
        </mxCell>
        <mxCell id="omJrnw-WzWxWsnhf1Q-1-41" value="permission_code VARCHAR(100) NOT NULL " style="shape=partialRectangle;overflow=hidden;connectable=0;fillColor=none;top=0;left=0;bottom=0;right=0;align=left;spacingLeft=6;fontStyle=1;" vertex="1" parent="omJrnw-WzWxWsnhf1Q-1-39">
          <mxGeometry x="30" width="290" height="40" as="geometry">
            <mxRectangle width="290" height="40" as="alternateBounds" />
          </mxGeometry>
        </mxCell>
        <mxCell id="omJrnw-WzWxWsnhf1Q-1-220" value="" style="shape=partialRectangle;collapsible=0;dropTarget=0;pointerEvents=0;fillColor=none;points=[[0,0.5],[1,0.5]];portConstraint=eastwest;top=0;left=0;right=0;bottom=0;" vertex="1" parent="omJrnw-WzWxWsnhf1Q-1-38">
          <mxGeometry y="80" width="320" height="40" as="geometry" />
        </mxCell>
        <mxCell id="omJrnw-WzWxWsnhf1Q-1-221" value="" style="shape=partialRectangle;overflow=hidden;connectable=0;fillColor=none;top=0;left=0;bottom=0;right=0;" vertex="1" parent="omJrnw-WzWxWsnhf1Q-1-220">
          <mxGeometry width="30" height="40" as="geometry">
            <mxRectangle width="30" height="40" as="alternateBounds" />
          </mxGeometry>
        </mxCell>
        <mxCell id="omJrnw-WzWxWsnhf1Q-1-222" value="status ENUM(&#39;ACTIVE&#39;, &#39;INACTIVE&#39;) NOT NULL" style="shape=partialRectangle;overflow=hidden;connectable=0;fillColor=none;top=0;left=0;bottom=0;right=0;align=left;spacingLeft=6;" vertex="1" parent="omJrnw-WzWxWsnhf1Q-1-220">
          <mxGeometry x="30" width="290" height="40" as="geometry">
            <mxRectangle width="290" height="40" as="alternateBounds" />
          </mxGeometry>
        </mxCell>
        <mxCell id="omJrnw-WzWxWsnhf1Q-1-45" value="" style="shape=partialRectangle;collapsible=0;dropTarget=0;pointerEvents=0;fillColor=none;points=[[0,0.5],[1,0.5]];portConstraint=eastwest;top=0;left=0;right=0;bottom=0;" vertex="1" parent="omJrnw-WzWxWsnhf1Q-1-38">
          <mxGeometry y="120" width="320" height="40" as="geometry" />
        </mxCell>
        <mxCell id="omJrnw-WzWxWsnhf1Q-1-46" value="" style="shape=partialRectangle;overflow=hidden;connectable=0;fillColor=none;top=0;left=0;bottom=0;right=0;" vertex="1" parent="omJrnw-WzWxWsnhf1Q-1-45">
          <mxGeometry width="30" height="40" as="geometry">
            <mxRectangle width="30" height="40" as="alternateBounds" />
          </mxGeometry>
        </mxCell>
        <mxCell id="omJrnw-WzWxWsnhf1Q-1-47" value="created_date TIMESTAMP NOT NULL" style="shape=partialRectangle;overflow=hidden;connectable=0;fillColor=none;top=0;left=0;bottom=0;right=0;align=left;spacingLeft=6;" vertex="1" parent="omJrnw-WzWxWsnhf1Q-1-45">
          <mxGeometry x="30" width="290" height="40" as="geometry">
            <mxRectangle width="290" height="40" as="alternateBounds" />
          </mxGeometry>
        </mxCell>
        <mxCell id="omJrnw-WzWxWsnhf1Q-1-48" value="" style="shape=partialRectangle;collapsible=0;dropTarget=0;pointerEvents=0;fillColor=none;points=[[0,0.5],[1,0.5]];portConstraint=eastwest;top=0;left=0;right=0;bottom=0;" vertex="1" parent="omJrnw-WzWxWsnhf1Q-1-38">
          <mxGeometry y="160" width="320" height="40" as="geometry" />
        </mxCell>
        <mxCell id="omJrnw-WzWxWsnhf1Q-1-49" value="" style="shape=partialRectangle;overflow=hidden;connectable=0;fillColor=none;top=0;left=0;bottom=0;right=0;" vertex="1" parent="omJrnw-WzWxWsnhf1Q-1-48">
          <mxGeometry width="30" height="40" as="geometry">
            <mxRectangle width="30" height="40" as="alternateBounds" />
          </mxGeometry>
        </mxCell>
        <mxCell id="omJrnw-WzWxWsnhf1Q-1-50" value="last_updated_date TIMESTAMPÂ NOT NULL" style="shape=partialRectangle;overflow=hidden;connectable=0;fillColor=none;top=0;left=0;bottom=0;right=0;align=left;spacingLeft=6;" vertex="1" parent="omJrnw-WzWxWsnhf1Q-1-48">
          <mxGeometry x="30" width="290" height="40" as="geometry">
            <mxRectangle width="290" height="40" as="alternateBounds" />
          </mxGeometry>
        </mxCell>
        <mxCell id="omJrnw-WzWxWsnhf1Q-1-51" value="" style="shape=partialRectangle;collapsible=0;dropTarget=0;pointerEvents=0;fillColor=none;points=[[0,0.5],[1,0.5]];portConstraint=eastwest;top=0;left=0;right=0;bottom=0;" vertex="1" parent="omJrnw-WzWxWsnhf1Q-1-38">
          <mxGeometry y="200" width="320" height="40" as="geometry" />
        </mxCell>
        <mxCell id="omJrnw-WzWxWsnhf1Q-1-52" value="" style="shape=partialRectangle;overflow=hidden;connectable=0;fillColor=none;top=0;left=0;bottom=0;right=0;" vertex="1" parent="omJrnw-WzWxWsnhf1Q-1-51">
          <mxGeometry width="30" height="40" as="geometry">
            <mxRectangle width="30" height="40" as="alternateBounds" />
          </mxGeometry>
        </mxCell>
        <mxCell id="omJrnw-WzWxWsnhf1Q-1-53" value="created_by VARCHAR(100) NOT NULL" style="shape=partialRectangle;overflow=hidden;connectable=0;fillColor=none;top=0;left=0;bottom=0;right=0;align=left;spacingLeft=6;" vertex="1" parent="omJrnw-WzWxWsnhf1Q-1-51">
          <mxGeometry x="30" width="290" height="40" as="geometry">
            <mxRectangle width="290" height="40" as="alternateBounds" />
          </mxGeometry>
        </mxCell>
        <mxCell id="omJrnw-WzWxWsnhf1Q-1-54" value="" style="shape=partialRectangle;collapsible=0;dropTarget=0;pointerEvents=0;fillColor=none;points=[[0,0.5],[1,0.5]];portConstraint=eastwest;top=0;left=0;right=0;bottom=0;" vertex="1" parent="omJrnw-WzWxWsnhf1Q-1-38">
          <mxGeometry y="240" width="320" height="40" as="geometry" />
        </mxCell>
        <mxCell id="omJrnw-WzWxWsnhf1Q-1-55" value="" style="shape=partialRectangle;overflow=hidden;connectable=0;fillColor=none;top=0;left=0;bottom=0;right=0;" vertex="1" parent="omJrnw-WzWxWsnhf1Q-1-54">
          <mxGeometry width="30" height="40" as="geometry">
            <mxRectangle width="30" height="40" as="alternateBounds" />
          </mxGeometry>
        </mxCell>
        <mxCell id="omJrnw-WzWxWsnhf1Q-1-56" value="last_updated_by VARCHAR(100) NOT NULL" style="shape=partialRectangle;overflow=hidden;connectable=0;fillColor=none;top=0;left=0;bottom=0;right=0;align=left;spacingLeft=6;" vertex="1" parent="omJrnw-WzWxWsnhf1Q-1-54">
          <mxGeometry x="30" width="290" height="40" as="geometry">
            <mxRectangle width="290" height="40" as="alternateBounds" />
          </mxGeometry>
        </mxCell>
        <mxCell id="omJrnw-WzWxWsnhf1Q-1-58" value="permission_role" style="shape=table;startSize=40;container=1;collapsible=1;childLayout=tableLayout;fixedRows=1;rowLines=0;fontStyle=1;align=center;resizeLast=1;strokeWidth=1;swimlaneFillColor=default;" vertex="1" parent="1">
          <mxGeometry x="921" y="40" width="320" height="120" as="geometry" />
        </mxCell>
        <mxCell id="omJrnw-WzWxWsnhf1Q-1-59" value="" style="shape=partialRectangle;collapsible=0;dropTarget=0;pointerEvents=0;fillColor=none;points=[[0,0.5],[1,0.5]];portConstraint=eastwest;top=0;left=0;right=0;bottom=1;" vertex="1" parent="omJrnw-WzWxWsnhf1Q-1-58">
          <mxGeometry y="40" width="320" height="40" as="geometry" />
        </mxCell>
        <mxCell id="omJrnw-WzWxWsnhf1Q-1-60" value="PK" style="shape=partialRectangle;overflow=hidden;connectable=0;fillColor=default;top=1;left=1;bottom=1;right=1;fontStyle=1;rowspan=2;colspan=1;container=1;" vertex="1" parent="omJrnw-WzWxWsnhf1Q-1-59">
          <mxGeometry width="30" height="80" as="geometry">
            <mxRectangle width="30" height="40" as="alternateBounds" />
          </mxGeometry>
        </mxCell>
        <mxCell id="omJrnw-WzWxWsnhf1Q-1-61" value="role_code VARCHAR(100) NOT NULL " style="shape=partialRectangle;overflow=hidden;connectable=0;fillColor=none;top=0;left=0;bottom=0;right=0;align=left;spacingLeft=6;fontStyle=1;" vertex="1" parent="omJrnw-WzWxWsnhf1Q-1-59">
          <mxGeometry x="30" width="290" height="40" as="geometry">
            <mxRectangle width="290" height="40" as="alternateBounds" />
          </mxGeometry>
        </mxCell>
        <mxCell id="omJrnw-WzWxWsnhf1Q-1-62" value="" style="shape=partialRectangle;collapsible=0;dropTarget=0;pointerEvents=0;fillColor=none;points=[[0,0.5],[1,0.5]];portConstraint=eastwest;top=0;left=0;right=0;bottom=1;" vertex="1" parent="omJrnw-WzWxWsnhf1Q-1-58">
          <mxGeometry y="80" width="320" height="40" as="geometry" />
        </mxCell>
        <mxCell id="omJrnw-WzWxWsnhf1Q-1-63" value="PK" style="shape=partialRectangle;overflow=hidden;connectable=0;fillColor=none;top=0;left=0;bottom=0;right=0;fontStyle=1;strokeWidth=1;strokeColor=default;" vertex="1" visible="0" parent="omJrnw-WzWxWsnhf1Q-1-62">
          <mxGeometry width="30" height="40" as="geometry">
            <mxRectangle width="30" height="40" as="alternateBounds" />
          </mxGeometry>
        </mxCell>
        <mxCell id="omJrnw-WzWxWsnhf1Q-1-64" value="permisison_code VARCHAR(100) NOT NULL " style="shape=partialRectangle;overflow=hidden;connectable=0;fillColor=none;top=0;left=0;bottom=0;right=0;align=left;spacingLeft=6;fontStyle=1;" vertex="1" parent="omJrnw-WzWxWsnhf1Q-1-62">
          <mxGeometry x="30" width="290" height="40" as="geometry">
            <mxRectangle width="290" height="40" as="alternateBounds" />
          </mxGeometry>
        </mxCell>
        <mxCell id="omJrnw-WzWxWsnhf1Q-1-69" value="" style="endArrow=ERzeroToMany;startArrow=ERmandOne;html=1;rounded=1;entryX=0;entryY=0.5;entryDx=0;entryDy=0;endFill=0;startFill=0;curved=0;" edge="1" parent="1" target="C-vyLk0tnHw3VtMMgP7b-14">
          <mxGeometry width="50" height="50" relative="1" as="geometry">
            <mxPoint x="440" y="100" as="sourcePoint" />
            <mxPoint x="520" y="95" as="targetPoint" />
            <Array as="points" />
          </mxGeometry>
        </mxCell>
        <mxCell id="omJrnw-WzWxWsnhf1Q-1-70" value="" style="endArrow=ERmandOne;startArrow=ERzeroToMany;html=1;rounded=1;endFill=0;startFill=0;exitX=0;exitY=0.5;exitDx=0;exitDy=0;curved=0;" edge="1" parent="1" source="omJrnw-WzWxWsnhf1Q-1-62">
          <mxGeometry width="50" height="50" relative="1" as="geometry">
            <mxPoint x="871" y="310" as="sourcePoint" />
            <mxPoint x="921" y="260" as="targetPoint" />
            <Array as="points">
              <mxPoint x="880" y="140" />
              <mxPoint x="880" y="190" />
              <mxPoint x="880" y="260" />
            </Array>
          </mxGeometry>
        </mxCell>
        <mxCell id="omJrnw-WzWxWsnhf1Q-1-71" value="" style="endArrow=ERzeroToMany;startArrow=ERmandOne;html=1;rounded=1;endFill=0;startFill=0;exitX=1.003;exitY=0.784;exitDx=0;exitDy=0;exitPerimeter=0;curved=0;" edge="1" parent="1" source="C-vyLk0tnHw3VtMMgP7b-3">
          <mxGeometry width="50" height="50" relative="1" as="geometry">
            <mxPoint x="871" y="140" as="sourcePoint" />
            <mxPoint x="920" y="100" as="targetPoint" />
            <Array as="points">
              <mxPoint x="860" y="271" />
              <mxPoint x="860" y="100" />
            </Array>
          </mxGeometry>
        </mxCell>
        <mxCell id="omJrnw-WzWxWsnhf1Q-1-72" value="profile" style="shape=table;startSize=40;container=1;collapsible=1;childLayout=tableLayout;fixedRows=1;rowLines=0;fontStyle=1;align=center;resizeLast=1;" vertex="1" parent="1">
          <mxGeometry x="120" y="480" width="320" height="440" as="geometry" />
        </mxCell>
        <mxCell id="omJrnw-WzWxWsnhf1Q-1-73" value="" style="shape=partialRectangle;collapsible=0;dropTarget=0;pointerEvents=0;fillColor=none;points=[[0,0.5],[1,0.5]];portConstraint=eastwest;top=0;left=0;right=0;bottom=1;" vertex="1" parent="omJrnw-WzWxWsnhf1Q-1-72">
          <mxGeometry y="40" width="320" height="40" as="geometry" />
        </mxCell>
        <mxCell id="omJrnw-WzWxWsnhf1Q-1-74" value="PK" style="shape=partialRectangle;overflow=hidden;connectable=0;fillColor=none;top=0;left=0;bottom=0;right=0;fontStyle=1;" vertex="1" parent="omJrnw-WzWxWsnhf1Q-1-73">
          <mxGeometry width="40" height="40" as="geometry">
            <mxRectangle width="40" height="40" as="alternateBounds" />
          </mxGeometry>
        </mxCell>
        <mxCell id="omJrnw-WzWxWsnhf1Q-1-75" value="member_id INT(11) NOT NULL " style="shape=partialRectangle;overflow=hidden;connectable=0;fillColor=none;top=0;left=0;bottom=0;right=0;align=left;spacingLeft=6;fontStyle=1;" vertex="1" parent="omJrnw-WzWxWsnhf1Q-1-73">
          <mxGeometry x="40" width="280" height="40" as="geometry">
            <mxRectangle width="280" height="40" as="alternateBounds" />
          </mxGeometry>
        </mxCell>
        <mxCell id="omJrnw-WzWxWsnhf1Q-1-76" value="" style="shape=partialRectangle;collapsible=0;dropTarget=0;pointerEvents=0;fillColor=none;points=[[0,0.5],[1,0.5]];portConstraint=eastwest;top=0;left=0;right=0;bottom=0;" vertex="1" parent="omJrnw-WzWxWsnhf1Q-1-72">
          <mxGeometry y="80" width="320" height="40" as="geometry" />
        </mxCell>
        <mxCell id="omJrnw-WzWxWsnhf1Q-1-77" value="" style="shape=partialRectangle;overflow=hidden;connectable=0;fillColor=none;top=0;left=0;bottom=0;right=0;" vertex="1" parent="omJrnw-WzWxWsnhf1Q-1-76">
          <mxGeometry width="40" height="40" as="geometry">
            <mxRectangle width="40" height="40" as="alternateBounds" />
          </mxGeometry>
        </mxCell>
        <mxCell id="omJrnw-WzWxWsnhf1Q-1-78" value="display_name VARCHAR(250) DEFAULTÂ Â NULL" style="shape=partialRectangle;overflow=hidden;connectable=0;fillColor=none;top=0;left=0;bottom=0;right=0;align=left;spacingLeft=6;" vertex="1" parent="omJrnw-WzWxWsnhf1Q-1-76">
          <mxGeometry x="40" width="280" height="40" as="geometry">
            <mxRectangle width="280" height="40" as="alternateBounds" />
          </mxGeometry>
        </mxCell>
        <mxCell id="omJrnw-WzWxWsnhf1Q-1-79" value="" style="shape=partialRectangle;collapsible=0;dropTarget=0;pointerEvents=0;fillColor=none;points=[[0,0.5],[1,0.5]];portConstraint=eastwest;top=0;left=0;right=0;bottom=0;" vertex="1" parent="omJrnw-WzWxWsnhf1Q-1-72">
          <mxGeometry y="120" width="320" height="40" as="geometry" />
        </mxCell>
        <mxCell id="omJrnw-WzWxWsnhf1Q-1-80" value="" style="shape=partialRectangle;overflow=hidden;connectable=0;fillColor=none;top=0;left=0;bottom=0;right=0;" vertex="1" parent="omJrnw-WzWxWsnhf1Q-1-79">
          <mxGeometry width="40" height="40" as="geometry">
            <mxRectangle width="40" height="40" as="alternateBounds" />
          </mxGeometry>
        </mxCell>
        <mxCell id="omJrnw-WzWxWsnhf1Q-1-81" value="skills VARCHAR(250) DEFAULTÂ  NULL" style="shape=partialRectangle;overflow=hidden;connectable=0;fillColor=none;top=0;left=0;bottom=0;right=0;align=left;spacingLeft=6;" vertex="1" parent="omJrnw-WzWxWsnhf1Q-1-79">
          <mxGeometry x="40" width="280" height="40" as="geometry">
            <mxRectangle width="280" height="40" as="alternateBounds" />
          </mxGeometry>
        </mxCell>
        <mxCell id="omJrnw-WzWxWsnhf1Q-1-129" value="" style="shape=partialRectangle;collapsible=0;dropTarget=0;pointerEvents=0;fillColor=none;points=[[0,0.5],[1,0.5]];portConstraint=eastwest;top=0;left=0;right=0;bottom=0;flipV=1;flipH=0;" vertex="1" parent="omJrnw-WzWxWsnhf1Q-1-72">
          <mxGeometry y="160" width="320" height="40" as="geometry" />
        </mxCell>
        <mxCell id="omJrnw-WzWxWsnhf1Q-1-130" value="" style="shape=partialRectangle;overflow=hidden;connectable=0;fillColor=none;top=0;left=0;bottom=0;right=0;" vertex="1" parent="omJrnw-WzWxWsnhf1Q-1-129">
          <mxGeometry width="40" height="40" as="geometry">
            <mxRectangle width="40" height="40" as="alternateBounds" />
          </mxGeometry>
        </mxCell>
        <mxCell id="omJrnw-WzWxWsnhf1Q-1-131" value="total_student INT(11) DEFAULT 0" style="shape=partialRectangle;overflow=hidden;connectable=0;fillColor=none;top=0;left=0;bottom=0;right=0;align=left;spacingLeft=6;" vertex="1" parent="omJrnw-WzWxWsnhf1Q-1-129">
          <mxGeometry x="40" width="280" height="40" as="geometry">
            <mxRectangle width="280" height="40" as="alternateBounds" />
          </mxGeometry>
        </mxCell>
        <mxCell id="omJrnw-WzWxWsnhf1Q-1-132" value="" style="shape=partialRectangle;collapsible=0;dropTarget=0;pointerEvents=0;fillColor=none;points=[[0,0.5],[1,0.5]];portConstraint=eastwest;top=0;left=0;right=0;bottom=0;" vertex="1" parent="omJrnw-WzWxWsnhf1Q-1-72">
          <mxGeometry y="200" width="320" height="40" as="geometry" />
        </mxCell>
        <mxCell id="omJrnw-WzWxWsnhf1Q-1-133" value="" style="shape=partialRectangle;overflow=hidden;connectable=0;fillColor=none;top=0;left=0;bottom=0;right=0;" vertex="1" parent="omJrnw-WzWxWsnhf1Q-1-132">
          <mxGeometry width="40" height="40" as="geometry">
            <mxRectangle width="40" height="40" as="alternateBounds" />
          </mxGeometry>
        </mxCell>
        <mxCell id="omJrnw-WzWxWsnhf1Q-1-134" value="total_review INT(11) DEFAULT 0" style="shape=partialRectangle;overflow=hidden;connectable=0;fillColor=none;top=0;left=0;bottom=0;right=0;align=left;spacingLeft=6;" vertex="1" parent="omJrnw-WzWxWsnhf1Q-1-132">
          <mxGeometry x="40" width="280" height="40" as="geometry">
            <mxRectangle width="280" height="40" as="alternateBounds" />
          </mxGeometry>
        </mxCell>
        <mxCell id="omJrnw-WzWxWsnhf1Q-1-214" value="" style="shape=partialRectangle;collapsible=0;dropTarget=0;pointerEvents=0;fillColor=none;points=[[0,0.5],[1,0.5]];portConstraint=eastwest;top=0;left=0;right=0;bottom=0;" vertex="1" parent="omJrnw-WzWxWsnhf1Q-1-72">
          <mxGeometry y="240" width="320" height="40" as="geometry" />
        </mxCell>
        <mxCell id="omJrnw-WzWxWsnhf1Q-1-215" value="" style="shape=partialRectangle;overflow=hidden;connectable=0;fillColor=none;top=0;left=0;bottom=0;right=0;" vertex="1" parent="omJrnw-WzWxWsnhf1Q-1-214">
          <mxGeometry width="40" height="40" as="geometry">
            <mxRectangle width="40" height="40" as="alternateBounds" />
          </mxGeometry>
        </mxCell>
        <mxCell id="omJrnw-WzWxWsnhf1Q-1-216" value="status ENUM(&#39;ACTIVE&#39;, &#39;INACTIVE&#39;) NOT NULL" style="shape=partialRectangle;overflow=hidden;connectable=0;fillColor=none;top=0;left=0;bottom=0;right=0;align=left;spacingLeft=6;" vertex="1" parent="omJrnw-WzWxWsnhf1Q-1-214">
          <mxGeometry x="40" width="280" height="40" as="geometry">
            <mxRectangle width="280" height="40" as="alternateBounds" />
          </mxGeometry>
        </mxCell>
        <mxCell id="omJrnw-WzWxWsnhf1Q-1-161" value="" style="shape=partialRectangle;collapsible=0;dropTarget=0;pointerEvents=0;fillColor=none;points=[[0,0.5],[1,0.5]];portConstraint=eastwest;top=0;left=0;right=0;bottom=0;" vertex="1" parent="omJrnw-WzWxWsnhf1Q-1-72">
          <mxGeometry y="280" width="320" height="40" as="geometry" />
        </mxCell>
        <mxCell id="omJrnw-WzWxWsnhf1Q-1-162" value="" style="shape=partialRectangle;overflow=hidden;connectable=0;fillColor=none;top=0;left=0;bottom=0;right=0;" vertex="1" parent="omJrnw-WzWxWsnhf1Q-1-161">
          <mxGeometry width="40" height="40" as="geometry">
            <mxRectangle width="40" height="40" as="alternateBounds" />
          </mxGeometry>
        </mxCell>
        <mxCell id="omJrnw-WzWxWsnhf1Q-1-163" value="created_date TIMESTAMP NOT NULL" style="shape=partialRectangle;overflow=hidden;connectable=0;fillColor=none;top=0;left=0;bottom=0;right=0;align=left;spacingLeft=6;" vertex="1" parent="omJrnw-WzWxWsnhf1Q-1-161">
          <mxGeometry x="40" width="280" height="40" as="geometry">
            <mxRectangle width="280" height="40" as="alternateBounds" />
          </mxGeometry>
        </mxCell>
        <mxCell id="omJrnw-WzWxWsnhf1Q-1-88" value="" style="shape=partialRectangle;collapsible=0;dropTarget=0;pointerEvents=0;fillColor=none;points=[[0,0.5],[1,0.5]];portConstraint=eastwest;top=0;left=0;right=0;bottom=0;" vertex="1" parent="omJrnw-WzWxWsnhf1Q-1-72">
          <mxGeometry y="320" width="320" height="40" as="geometry" />
        </mxCell>
        <mxCell id="omJrnw-WzWxWsnhf1Q-1-89" value="" style="shape=partialRectangle;overflow=hidden;connectable=0;fillColor=none;top=0;left=0;bottom=0;right=0;" vertex="1" parent="omJrnw-WzWxWsnhf1Q-1-88">
          <mxGeometry width="40" height="40" as="geometry">
            <mxRectangle width="40" height="40" as="alternateBounds" />
          </mxGeometry>
        </mxCell>
        <mxCell id="omJrnw-WzWxWsnhf1Q-1-90" value="last_updated_date TIMESTAMPÂ NOT NULL" style="shape=partialRectangle;overflow=hidden;connectable=0;fillColor=none;top=0;left=0;bottom=0;right=0;align=left;spacingLeft=6;" vertex="1" parent="omJrnw-WzWxWsnhf1Q-1-88">
          <mxGeometry x="40" width="280" height="40" as="geometry">
            <mxRectangle width="280" height="40" as="alternateBounds" />
          </mxGeometry>
        </mxCell>
        <mxCell id="omJrnw-WzWxWsnhf1Q-1-91" value="" style="shape=partialRectangle;collapsible=0;dropTarget=0;pointerEvents=0;fillColor=none;points=[[0,0.5],[1,0.5]];portConstraint=eastwest;top=0;left=0;right=0;bottom=0;" vertex="1" parent="omJrnw-WzWxWsnhf1Q-1-72">
          <mxGeometry y="360" width="320" height="40" as="geometry" />
        </mxCell>
        <mxCell id="omJrnw-WzWxWsnhf1Q-1-92" value="" style="shape=partialRectangle;overflow=hidden;connectable=0;fillColor=none;top=0;left=0;bottom=0;right=0;" vertex="1" parent="omJrnw-WzWxWsnhf1Q-1-91">
          <mxGeometry width="40" height="40" as="geometry">
            <mxRectangle width="40" height="40" as="alternateBounds" />
          </mxGeometry>
        </mxCell>
        <mxCell id="omJrnw-WzWxWsnhf1Q-1-93" value="created_by VARCHAR(100) NOT NULL" style="shape=partialRectangle;overflow=hidden;connectable=0;fillColor=none;top=0;left=0;bottom=0;right=0;align=left;spacingLeft=6;" vertex="1" parent="omJrnw-WzWxWsnhf1Q-1-91">
          <mxGeometry x="40" width="280" height="40" as="geometry">
            <mxRectangle width="280" height="40" as="alternateBounds" />
          </mxGeometry>
        </mxCell>
        <mxCell id="omJrnw-WzWxWsnhf1Q-1-94" value="" style="shape=partialRectangle;collapsible=0;dropTarget=0;pointerEvents=0;fillColor=none;points=[[0,0.5],[1,0.5]];portConstraint=eastwest;top=0;left=0;right=0;bottom=0;" vertex="1" parent="omJrnw-WzWxWsnhf1Q-1-72">
          <mxGeometry y="400" width="320" height="40" as="geometry" />
        </mxCell>
        <mxCell id="omJrnw-WzWxWsnhf1Q-1-95" value="" style="shape=partialRectangle;overflow=hidden;connectable=0;fillColor=none;top=0;left=0;bottom=0;right=0;" vertex="1" parent="omJrnw-WzWxWsnhf1Q-1-94">
          <mxGeometry width="40" height="40" as="geometry">
            <mxRectangle width="40" height="40" as="alternateBounds" />
          </mxGeometry>
        </mxCell>
        <mxCell id="omJrnw-WzWxWsnhf1Q-1-96" value="last_updated_by VARCHAR(100) NOT NULL" style="shape=partialRectangle;overflow=hidden;connectable=0;fillColor=none;top=0;left=0;bottom=0;right=0;align=left;spacingLeft=6;" vertex="1" parent="omJrnw-WzWxWsnhf1Q-1-94">
          <mxGeometry x="40" width="280" height="40" as="geometry">
            <mxRectangle width="280" height="40" as="alternateBounds" />
          </mxGeometry>
        </mxCell>
        <mxCell id="omJrnw-WzWxWsnhf1Q-1-97" value="" style="endArrow=ERmandOne;startArrow=ERmandOne;html=1;rounded=1;endFill=0;entryX=0;entryY=0.5;entryDx=0;entryDy=0;startFill=0;curved=0;exitX=-0.01;exitY=0.745;exitDx=0;exitDy=0;exitPerimeter=0;" edge="1" parent="1" source="C-vyLk0tnHw3VtMMgP7b-24" target="omJrnw-WzWxWsnhf1Q-1-73">
          <mxGeometry width="50" height="50" relative="1" as="geometry">
            <mxPoint x="120" y="110" as="sourcePoint" />
            <mxPoint x="120" y="525" as="targetPoint" />
            <Array as="points">
              <mxPoint x="80" y="125" />
              <mxPoint x="80" y="140" />
              <mxPoint x="80" y="230" />
              <mxPoint x="80" y="320" />
              <mxPoint x="80" y="440" />
              <mxPoint x="80" y="540" />
            </Array>
          </mxGeometry>
        </mxCell>
        <mxCell id="omJrnw-WzWxWsnhf1Q-1-164" value="message" style="shape=table;startSize=40;container=1;collapsible=1;childLayout=tableLayout;fixedRows=1;rowLines=0;fontStyle=1;align=center;resizeLast=1;" vertex="1" parent="1">
          <mxGeometry x="-320" y="40" width="320" height="360" as="geometry" />
        </mxCell>
        <mxCell id="omJrnw-WzWxWsnhf1Q-1-165" value="" style="shape=partialRectangle;collapsible=0;dropTarget=0;pointerEvents=0;fillColor=none;points=[[0,0.5],[1,0.5]];portConstraint=eastwest;top=0;left=0;right=0;bottom=1;" vertex="1" parent="omJrnw-WzWxWsnhf1Q-1-164">
          <mxGeometry y="40" width="320" height="40" as="geometry" />
        </mxCell>
        <mxCell id="omJrnw-WzWxWsnhf1Q-1-166" value="PK" style="shape=partialRectangle;overflow=hidden;connectable=0;fillColor=none;top=0;left=0;bottom=0;right=0;fontStyle=1;" vertex="1" parent="omJrnw-WzWxWsnhf1Q-1-165">
          <mxGeometry width="30" height="40" as="geometry">
            <mxRectangle width="30" height="40" as="alternateBounds" />
          </mxGeometry>
        </mxCell>
        <mxCell id="omJrnw-WzWxWsnhf1Q-1-167" value="message_id INT(11) NOT NULL " style="shape=partialRectangle;overflow=hidden;connectable=0;fillColor=none;top=0;left=0;bottom=0;right=0;align=left;spacingLeft=6;fontStyle=1;" vertex="1" parent="omJrnw-WzWxWsnhf1Q-1-165">
          <mxGeometry x="30" width="290" height="40" as="geometry">
            <mxRectangle width="290" height="40" as="alternateBounds" />
          </mxGeometry>
        </mxCell>
        <mxCell id="omJrnw-WzWxWsnhf1Q-1-211" value="" style="shape=partialRectangle;collapsible=0;dropTarget=0;pointerEvents=0;fillColor=none;points=[[0,0.5],[1,0.5]];portConstraint=eastwest;top=0;left=0;right=0;bottom=0;" vertex="1" parent="omJrnw-WzWxWsnhf1Q-1-164">
          <mxGeometry y="80" width="320" height="40" as="geometry" />
        </mxCell>
        <mxCell id="omJrnw-WzWxWsnhf1Q-1-212" value="FK" style="shape=partialRectangle;overflow=hidden;connectable=0;fillColor=none;top=0;left=0;bottom=0;right=0;" vertex="1" parent="omJrnw-WzWxWsnhf1Q-1-211">
          <mxGeometry width="30" height="40" as="geometry">
            <mxRectangle width="30" height="40" as="alternateBounds" />
          </mxGeometry>
        </mxCell>
        <mxCell id="omJrnw-WzWxWsnhf1Q-1-213" value="room_id INT(11) NOT NULL" style="shape=partialRectangle;overflow=hidden;connectable=0;fillColor=none;top=0;left=0;bottom=0;right=0;align=left;spacingLeft=6;" vertex="1" parent="omJrnw-WzWxWsnhf1Q-1-211">
          <mxGeometry x="30" width="290" height="40" as="geometry">
            <mxRectangle width="290" height="40" as="alternateBounds" />
          </mxGeometry>
        </mxCell>
        <mxCell id="omJrnw-WzWxWsnhf1Q-1-248" value="" style="shape=partialRectangle;collapsible=0;dropTarget=0;pointerEvents=0;fillColor=none;points=[[0,0.5],[1,0.5]];portConstraint=eastwest;top=0;left=0;right=0;bottom=0;" vertex="1" parent="omJrnw-WzWxWsnhf1Q-1-164">
          <mxGeometry y="120" width="320" height="40" as="geometry" />
        </mxCell>
        <mxCell id="omJrnw-WzWxWsnhf1Q-1-249" value="FK" style="shape=partialRectangle;overflow=hidden;connectable=0;fillColor=none;top=0;left=0;bottom=0;right=0;" vertex="1" parent="omJrnw-WzWxWsnhf1Q-1-248">
          <mxGeometry width="30" height="40" as="geometry">
            <mxRectangle width="30" height="40" as="alternateBounds" />
          </mxGeometry>
        </mxCell>
        <mxCell id="omJrnw-WzWxWsnhf1Q-1-250" value="account_id INT(11) NOT NULL" style="shape=partialRectangle;overflow=hidden;connectable=0;fillColor=none;top=0;left=0;bottom=0;right=0;align=left;spacingLeft=6;" vertex="1" parent="omJrnw-WzWxWsnhf1Q-1-248">
          <mxGeometry x="30" width="290" height="40" as="geometry">
            <mxRectangle width="290" height="40" as="alternateBounds" />
          </mxGeometry>
        </mxCell>
        <mxCell id="omJrnw-WzWxWsnhf1Q-1-223" value="" style="shape=partialRectangle;collapsible=0;dropTarget=0;pointerEvents=0;fillColor=none;points=[[0,0.5],[1,0.5]];portConstraint=eastwest;top=0;left=0;right=0;bottom=0;" vertex="1" parent="omJrnw-WzWxWsnhf1Q-1-164">
          <mxGeometry y="160" width="320" height="40" as="geometry" />
        </mxCell>
        <mxCell id="omJrnw-WzWxWsnhf1Q-1-224" value="" style="shape=partialRectangle;overflow=hidden;connectable=0;fillColor=none;top=0;left=0;bottom=0;right=0;" vertex="1" parent="omJrnw-WzWxWsnhf1Q-1-223">
          <mxGeometry width="30" height="40" as="geometry">
            <mxRectangle width="30" height="40" as="alternateBounds" />
          </mxGeometry>
        </mxCell>
        <mxCell id="omJrnw-WzWxWsnhf1Q-1-225" value="status ENUM(&#39;ACTIVE&#39;, &#39;INACTIVE&#39;) NOT NULL" style="shape=partialRectangle;overflow=hidden;connectable=0;fillColor=none;top=0;left=0;bottom=0;right=0;align=left;spacingLeft=6;" vertex="1" parent="omJrnw-WzWxWsnhf1Q-1-223">
          <mxGeometry x="30" width="290" height="40" as="geometry">
            <mxRectangle width="290" height="40" as="alternateBounds" />
          </mxGeometry>
        </mxCell>
        <mxCell id="omJrnw-WzWxWsnhf1Q-1-168" value="" style="shape=partialRectangle;collapsible=0;dropTarget=0;pointerEvents=0;fillColor=none;points=[[0,0.5],[1,0.5]];portConstraint=eastwest;top=0;left=0;right=0;bottom=0;" vertex="1" parent="omJrnw-WzWxWsnhf1Q-1-164">
          <mxGeometry y="200" width="320" height="40" as="geometry" />
        </mxCell>
        <mxCell id="omJrnw-WzWxWsnhf1Q-1-169" value="" style="shape=partialRectangle;overflow=hidden;connectable=0;fillColor=none;top=0;left=0;bottom=0;right=0;" vertex="1" parent="omJrnw-WzWxWsnhf1Q-1-168">
          <mxGeometry width="30" height="40" as="geometry">
            <mxRectangle width="30" height="40" as="alternateBounds" />
          </mxGeometry>
        </mxCell>
        <mxCell id="omJrnw-WzWxWsnhf1Q-1-170" value="created_date TIMESTAMP NOT NULL" style="shape=partialRectangle;overflow=hidden;connectable=0;fillColor=none;top=0;left=0;bottom=0;right=0;align=left;spacingLeft=6;" vertex="1" parent="omJrnw-WzWxWsnhf1Q-1-168">
          <mxGeometry x="30" width="290" height="40" as="geometry">
            <mxRectangle width="290" height="40" as="alternateBounds" />
          </mxGeometry>
        </mxCell>
        <mxCell id="omJrnw-WzWxWsnhf1Q-1-171" value="" style="shape=partialRectangle;collapsible=0;dropTarget=0;pointerEvents=0;fillColor=none;points=[[0,0.5],[1,0.5]];portConstraint=eastwest;top=0;left=0;right=0;bottom=0;" vertex="1" parent="omJrnw-WzWxWsnhf1Q-1-164">
          <mxGeometry y="240" width="320" height="40" as="geometry" />
        </mxCell>
        <mxCell id="omJrnw-WzWxWsnhf1Q-1-172" value="" style="shape=partialRectangle;overflow=hidden;connectable=0;fillColor=none;top=0;left=0;bottom=0;right=0;" vertex="1" parent="omJrnw-WzWxWsnhf1Q-1-171">
          <mxGeometry width="30" height="40" as="geometry">
            <mxRectangle width="30" height="40" as="alternateBounds" />
          </mxGeometry>
        </mxCell>
        <mxCell id="omJrnw-WzWxWsnhf1Q-1-173" value="last_updated_date TIMESTAMPÂ NOT NULL" style="shape=partialRectangle;overflow=hidden;connectable=0;fillColor=none;top=0;left=0;bottom=0;right=0;align=left;spacingLeft=6;" vertex="1" parent="omJrnw-WzWxWsnhf1Q-1-171">
          <mxGeometry x="30" width="290" height="40" as="geometry">
            <mxRectangle width="290" height="40" as="alternateBounds" />
          </mxGeometry>
        </mxCell>
        <mxCell id="omJrnw-WzWxWsnhf1Q-1-174" value="" style="shape=partialRectangle;collapsible=0;dropTarget=0;pointerEvents=0;fillColor=none;points=[[0,0.5],[1,0.5]];portConstraint=eastwest;top=0;left=0;right=0;bottom=0;" vertex="1" parent="omJrnw-WzWxWsnhf1Q-1-164">
          <mxGeometry y="280" width="320" height="40" as="geometry" />
        </mxCell>
        <mxCell id="omJrnw-WzWxWsnhf1Q-1-175" value="" style="shape=partialRectangle;overflow=hidden;connectable=0;fillColor=none;top=0;left=0;bottom=0;right=0;" vertex="1" parent="omJrnw-WzWxWsnhf1Q-1-174">
          <mxGeometry width="30" height="40" as="geometry">
            <mxRectangle width="30" height="40" as="alternateBounds" />
          </mxGeometry>
        </mxCell>
        <mxCell id="omJrnw-WzWxWsnhf1Q-1-176" value="created_by VARCHAR(100) NOT NULL" style="shape=partialRectangle;overflow=hidden;connectable=0;fillColor=none;top=0;left=0;bottom=0;right=0;align=left;spacingLeft=6;" vertex="1" parent="omJrnw-WzWxWsnhf1Q-1-174">
          <mxGeometry x="30" width="290" height="40" as="geometry">
            <mxRectangle width="290" height="40" as="alternateBounds" />
          </mxGeometry>
        </mxCell>
        <mxCell id="omJrnw-WzWxWsnhf1Q-1-177" value="" style="shape=partialRectangle;collapsible=0;dropTarget=0;pointerEvents=0;fillColor=none;points=[[0,0.5],[1,0.5]];portConstraint=eastwest;top=0;left=0;right=0;bottom=0;" vertex="1" parent="omJrnw-WzWxWsnhf1Q-1-164">
          <mxGeometry y="320" width="320" height="40" as="geometry" />
        </mxCell>
        <mxCell id="omJrnw-WzWxWsnhf1Q-1-178" value="" style="shape=partialRectangle;overflow=hidden;connectable=0;fillColor=none;top=0;left=0;bottom=0;right=0;" vertex="1" parent="omJrnw-WzWxWsnhf1Q-1-177">
          <mxGeometry width="30" height="40" as="geometry">
            <mxRectangle width="30" height="40" as="alternateBounds" />
          </mxGeometry>
        </mxCell>
        <mxCell id="omJrnw-WzWxWsnhf1Q-1-179" value="last_updated_by VARCHAR(100) NOT NULL" style="shape=partialRectangle;overflow=hidden;connectable=0;fillColor=none;top=0;left=0;bottom=0;right=0;align=left;spacingLeft=6;" vertex="1" parent="omJrnw-WzWxWsnhf1Q-1-177">
          <mxGeometry x="30" width="290" height="40" as="geometry">
            <mxRectangle width="290" height="40" as="alternateBounds" />
          </mxGeometry>
        </mxCell>
        <mxCell id="omJrnw-WzWxWsnhf1Q-1-226" value="room" style="shape=table;startSize=40;container=1;collapsible=1;childLayout=tableLayout;fixedRows=1;rowLines=0;fontStyle=1;align=center;resizeLast=1;" vertex="1" parent="1">
          <mxGeometry x="-760" y="40" width="320" height="320" as="geometry" />
        </mxCell>
        <mxCell id="omJrnw-WzWxWsnhf1Q-1-227" value="" style="shape=partialRectangle;collapsible=0;dropTarget=0;pointerEvents=0;fillColor=none;points=[[0,0.5],[1,0.5]];portConstraint=eastwest;top=0;left=0;right=0;bottom=1;" vertex="1" parent="omJrnw-WzWxWsnhf1Q-1-226">
          <mxGeometry y="40" width="320" height="40" as="geometry" />
        </mxCell>
        <mxCell id="omJrnw-WzWxWsnhf1Q-1-228" value="PK" style="shape=partialRectangle;overflow=hidden;connectable=0;fillColor=none;top=0;left=0;bottom=0;right=0;fontStyle=1;" vertex="1" parent="omJrnw-WzWxWsnhf1Q-1-227">
          <mxGeometry width="30" height="40" as="geometry">
            <mxRectangle width="30" height="40" as="alternateBounds" />
          </mxGeometry>
        </mxCell>
        <mxCell id="omJrnw-WzWxWsnhf1Q-1-229" value="room_id INT(11) NOT NULL " style="shape=partialRectangle;overflow=hidden;connectable=0;fillColor=none;top=0;left=0;bottom=0;right=0;align=left;spacingLeft=6;fontStyle=1;" vertex="1" parent="omJrnw-WzWxWsnhf1Q-1-227">
          <mxGeometry x="30" width="290" height="40" as="geometry">
            <mxRectangle width="290" height="40" as="alternateBounds" />
          </mxGeometry>
        </mxCell>
        <mxCell id="omJrnw-WzWxWsnhf1Q-1-230" value="" style="shape=partialRectangle;collapsible=0;dropTarget=0;pointerEvents=0;fillColor=none;points=[[0,0.5],[1,0.5]];portConstraint=eastwest;top=0;left=0;right=0;bottom=0;" vertex="1" parent="omJrnw-WzWxWsnhf1Q-1-226">
          <mxGeometry y="80" width="320" height="40" as="geometry" />
        </mxCell>
        <mxCell id="omJrnw-WzWxWsnhf1Q-1-231" value="" style="shape=partialRectangle;overflow=hidden;connectable=0;fillColor=none;top=0;left=0;bottom=0;right=0;" vertex="1" parent="omJrnw-WzWxWsnhf1Q-1-230">
          <mxGeometry width="30" height="40" as="geometry">
            <mxRectangle width="30" height="40" as="alternateBounds" />
          </mxGeometry>
        </mxCell>
        <mxCell id="omJrnw-WzWxWsnhf1Q-1-232" value="room_name VARCHAR(200) DEFAULT NULL" style="shape=partialRectangle;overflow=hidden;connectable=0;fillColor=none;top=0;left=0;bottom=0;right=0;align=left;spacingLeft=6;" vertex="1" parent="omJrnw-WzWxWsnhf1Q-1-230">
          <mxGeometry x="30" width="290" height="40" as="geometry">
            <mxRectangle width="290" height="40" as="alternateBounds" />
          </mxGeometry>
        </mxCell>
        <mxCell id="omJrnw-WzWxWsnhf1Q-1-233" value="" style="shape=partialRectangle;collapsible=0;dropTarget=0;pointerEvents=0;fillColor=none;points=[[0,0.5],[1,0.5]];portConstraint=eastwest;top=0;left=0;right=0;bottom=0;" vertex="1" parent="omJrnw-WzWxWsnhf1Q-1-226">
          <mxGeometry y="120" width="320" height="40" as="geometry" />
        </mxCell>
        <mxCell id="omJrnw-WzWxWsnhf1Q-1-234" value="" style="shape=partialRectangle;overflow=hidden;connectable=0;fillColor=none;top=0;left=0;bottom=0;right=0;" vertex="1" parent="omJrnw-WzWxWsnhf1Q-1-233">
          <mxGeometry width="30" height="40" as="geometry">
            <mxRectangle width="30" height="40" as="alternateBounds" />
          </mxGeometry>
        </mxCell>
        <mxCell id="omJrnw-WzWxWsnhf1Q-1-235" value="status ENUM(&#39;ACTIVE&#39;, &#39;INACTIVE&#39;) NOT NULL" style="shape=partialRectangle;overflow=hidden;connectable=0;fillColor=none;top=0;left=0;bottom=0;right=0;align=left;spacingLeft=6;" vertex="1" parent="omJrnw-WzWxWsnhf1Q-1-233">
          <mxGeometry x="30" width="290" height="40" as="geometry">
            <mxRectangle width="290" height="40" as="alternateBounds" />
          </mxGeometry>
        </mxCell>
        <mxCell id="omJrnw-WzWxWsnhf1Q-1-236" value="" style="shape=partialRectangle;collapsible=0;dropTarget=0;pointerEvents=0;fillColor=none;points=[[0,0.5],[1,0.5]];portConstraint=eastwest;top=0;left=0;right=0;bottom=0;" vertex="1" parent="omJrnw-WzWxWsnhf1Q-1-226">
          <mxGeometry y="160" width="320" height="40" as="geometry" />
        </mxCell>
        <mxCell id="omJrnw-WzWxWsnhf1Q-1-237" value="" style="shape=partialRectangle;overflow=hidden;connectable=0;fillColor=none;top=0;left=0;bottom=0;right=0;" vertex="1" parent="omJrnw-WzWxWsnhf1Q-1-236">
          <mxGeometry width="30" height="40" as="geometry">
            <mxRectangle width="30" height="40" as="alternateBounds" />
          </mxGeometry>
        </mxCell>
        <mxCell id="omJrnw-WzWxWsnhf1Q-1-238" value="created_date TIMESTAMP NOT NULL" style="shape=partialRectangle;overflow=hidden;connectable=0;fillColor=none;top=0;left=0;bottom=0;right=0;align=left;spacingLeft=6;" vertex="1" parent="omJrnw-WzWxWsnhf1Q-1-236">
          <mxGeometry x="30" width="290" height="40" as="geometry">
            <mxRectangle width="290" height="40" as="alternateBounds" />
          </mxGeometry>
        </mxCell>
        <mxCell id="omJrnw-WzWxWsnhf1Q-1-239" value="" style="shape=partialRectangle;collapsible=0;dropTarget=0;pointerEvents=0;fillColor=none;points=[[0,0.5],[1,0.5]];portConstraint=eastwest;top=0;left=0;right=0;bottom=0;" vertex="1" parent="omJrnw-WzWxWsnhf1Q-1-226">
          <mxGeometry y="200" width="320" height="40" as="geometry" />
        </mxCell>
        <mxCell id="omJrnw-WzWxWsnhf1Q-1-240" value="" style="shape=partialRectangle;overflow=hidden;connectable=0;fillColor=none;top=0;left=0;bottom=0;right=0;" vertex="1" parent="omJrnw-WzWxWsnhf1Q-1-239">
          <mxGeometry width="30" height="40" as="geometry">
            <mxRectangle width="30" height="40" as="alternateBounds" />
          </mxGeometry>
        </mxCell>
        <mxCell id="omJrnw-WzWxWsnhf1Q-1-241" value="last_updated_date TIMESTAMPÂ NOT NULL" style="shape=partialRectangle;overflow=hidden;connectable=0;fillColor=none;top=0;left=0;bottom=0;right=0;align=left;spacingLeft=6;" vertex="1" parent="omJrnw-WzWxWsnhf1Q-1-239">
          <mxGeometry x="30" width="290" height="40" as="geometry">
            <mxRectangle width="290" height="40" as="alternateBounds" />
          </mxGeometry>
        </mxCell>
        <mxCell id="omJrnw-WzWxWsnhf1Q-1-242" value="" style="shape=partialRectangle;collapsible=0;dropTarget=0;pointerEvents=0;fillColor=none;points=[[0,0.5],[1,0.5]];portConstraint=eastwest;top=0;left=0;right=0;bottom=0;" vertex="1" parent="omJrnw-WzWxWsnhf1Q-1-226">
          <mxGeometry y="240" width="320" height="40" as="geometry" />
        </mxCell>
        <mxCell id="omJrnw-WzWxWsnhf1Q-1-243" value="" style="shape=partialRectangle;overflow=hidden;connectable=0;fillColor=none;top=0;left=0;bottom=0;right=0;" vertex="1" parent="omJrnw-WzWxWsnhf1Q-1-242">
          <mxGeometry width="30" height="40" as="geometry">
            <mxRectangle width="30" height="40" as="alternateBounds" />
          </mxGeometry>
        </mxCell>
        <mxCell id="omJrnw-WzWxWsnhf1Q-1-244" value="created_by VARCHAR(100) NOT NULL" style="shape=partialRectangle;overflow=hidden;connectable=0;fillColor=none;top=0;left=0;bottom=0;right=0;align=left;spacingLeft=6;" vertex="1" parent="omJrnw-WzWxWsnhf1Q-1-242">
          <mxGeometry x="30" width="290" height="40" as="geometry">
            <mxRectangle width="290" height="40" as="alternateBounds" />
          </mxGeometry>
        </mxCell>
        <mxCell id="omJrnw-WzWxWsnhf1Q-1-245" value="" style="shape=partialRectangle;collapsible=0;dropTarget=0;pointerEvents=0;fillColor=none;points=[[0,0.5],[1,0.5]];portConstraint=eastwest;top=0;left=0;right=0;bottom=0;" vertex="1" parent="omJrnw-WzWxWsnhf1Q-1-226">
          <mxGeometry y="280" width="320" height="40" as="geometry" />
        </mxCell>
        <mxCell id="omJrnw-WzWxWsnhf1Q-1-246" value="" style="shape=partialRectangle;overflow=hidden;connectable=0;fillColor=none;top=0;left=0;bottom=0;right=0;" vertex="1" parent="omJrnw-WzWxWsnhf1Q-1-245">
          <mxGeometry width="30" height="40" as="geometry">
            <mxRectangle width="30" height="40" as="alternateBounds" />
          </mxGeometry>
        </mxCell>
        <mxCell id="omJrnw-WzWxWsnhf1Q-1-247" value="last_updated_by VARCHAR(100) NOT NULL" style="shape=partialRectangle;overflow=hidden;connectable=0;fillColor=none;top=0;left=0;bottom=0;right=0;align=left;spacingLeft=6;" vertex="1" parent="omJrnw-WzWxWsnhf1Q-1-245">
          <mxGeometry x="30" width="290" height="40" as="geometry">
            <mxRectangle width="290" height="40" as="alternateBounds" />
          </mxGeometry>
        </mxCell>
        <mxCell id="omJrnw-WzWxWsnhf1Q-1-251" value="" style="endArrow=ERzeroToMany;startArrow=ERmandOne;html=1;rounded=1;curved=0;endFill=0;startFill=0;entryX=0;entryY=0.5;entryDx=0;entryDy=0;exitX=1.006;exitY=0.244;exitDx=0;exitDy=0;exitPerimeter=0;" edge="1" parent="1" source="omJrnw-WzWxWsnhf1Q-1-227">
          <mxGeometry width="50" height="50" relative="1" as="geometry">
            <mxPoint x="-439.99999999999994" y="90.00000000000001" as="sourcePoint" />
            <mxPoint x="-323.2" y="141.52" as="targetPoint" />
            <Array as="points">
              <mxPoint x="-353" y="90" />
              <mxPoint x="-353.2" y="141.52" />
            </Array>
          </mxGeometry>
        </mxCell>
        <mxCell id="omJrnw-WzWxWsnhf1Q-1-252" value="" style="endArrow=ERmandOne;startArrow=ERzeroToMany;html=1;rounded=1;exitX=1;exitY=0.5;exitDx=0;exitDy=0;curved=0;endFill=0;startFill=0;" edge="1" parent="1" source="omJrnw-WzWxWsnhf1Q-1-248">
          <mxGeometry width="50" height="50" relative="1" as="geometry">
            <mxPoint y="94" as="sourcePoint" />
            <mxPoint x="120" y="94" as="targetPoint" />
            <Array as="points">
              <mxPoint x="20" y="180" />
              <mxPoint x="20" y="94" />
              <mxPoint x="100" y="94" />
            </Array>
          </mxGeometry>
        </mxCell>
        <mxCell id="omJrnw-WzWxWsnhf1Q-1-261" value="room_member" style="shape=table;startSize=40;container=1;collapsible=1;childLayout=tableLayout;fixedRows=1;rowLines=0;fontStyle=1;align=center;resizeLast=1;" vertex="1" parent="1">
          <mxGeometry x="-320" y="440" width="320" height="360" as="geometry" />
        </mxCell>
        <mxCell id="omJrnw-WzWxWsnhf1Q-1-262" value="" style="shape=partialRectangle;collapsible=0;dropTarget=0;pointerEvents=0;fillColor=none;points=[[0,0.5],[1,0.5]];portConstraint=eastwest;top=0;left=0;right=0;bottom=1;" vertex="1" parent="omJrnw-WzWxWsnhf1Q-1-261">
          <mxGeometry y="40" width="320" height="40" as="geometry" />
        </mxCell>
        <mxCell id="omJrnw-WzWxWsnhf1Q-1-263" value="PK" style="shape=partialRectangle;overflow=hidden;connectable=0;fillColor=default;top=1;left=1;bottom=1;right=1;fontStyle=1;rowspan=2;colspan=1;container=1;" vertex="1" parent="omJrnw-WzWxWsnhf1Q-1-262">
          <mxGeometry width="30" height="80" as="geometry">
            <mxRectangle width="30" height="40" as="alternateBounds" />
          </mxGeometry>
        </mxCell>
        <mxCell id="omJrnw-WzWxWsnhf1Q-1-264" value="room_id INT(11) NOT NULL " style="shape=partialRectangle;overflow=hidden;connectable=0;fillColor=none;top=0;left=0;bottom=0;right=0;align=left;spacingLeft=6;fontStyle=1;" vertex="1" parent="omJrnw-WzWxWsnhf1Q-1-262">
          <mxGeometry x="30" width="290" height="40" as="geometry">
            <mxRectangle width="290" height="40" as="alternateBounds" />
          </mxGeometry>
        </mxCell>
        <mxCell id="omJrnw-WzWxWsnhf1Q-1-283" value="" style="shape=partialRectangle;collapsible=0;dropTarget=0;pointerEvents=0;fillColor=none;points=[[0,0.5],[1,0.5]];portConstraint=eastwest;top=0;left=0;right=0;bottom=1;" vertex="1" parent="omJrnw-WzWxWsnhf1Q-1-261">
          <mxGeometry y="80" width="320" height="40" as="geometry" />
        </mxCell>
        <mxCell id="omJrnw-WzWxWsnhf1Q-1-284" value="PK" style="shape=partialRectangle;overflow=hidden;connectable=0;fillColor=none;top=0;left=0;bottom=0;right=0;fontStyle=1;" vertex="1" visible="0" parent="omJrnw-WzWxWsnhf1Q-1-283">
          <mxGeometry width="30" height="40" as="geometry">
            <mxRectangle width="30" height="40" as="alternateBounds" />
          </mxGeometry>
        </mxCell>
        <mxCell id="omJrnw-WzWxWsnhf1Q-1-285" value="member_id INT(11) NOT NULL " style="shape=partialRectangle;overflow=hidden;connectable=0;fillColor=none;top=0;left=0;bottom=0;right=0;align=left;spacingLeft=6;fontStyle=1;" vertex="1" parent="omJrnw-WzWxWsnhf1Q-1-283">
          <mxGeometry x="30" width="290" height="40" as="geometry">
            <mxRectangle width="290" height="40" as="alternateBounds" />
          </mxGeometry>
        </mxCell>
        <mxCell id="omJrnw-WzWxWsnhf1Q-1-265" value="" style="shape=partialRectangle;collapsible=0;dropTarget=0;pointerEvents=0;fillColor=none;points=[[0,0.5],[1,0.5]];portConstraint=eastwest;top=0;left=0;right=0;bottom=0;" vertex="1" parent="omJrnw-WzWxWsnhf1Q-1-261">
          <mxGeometry y="120" width="320" height="40" as="geometry" />
        </mxCell>
        <mxCell id="omJrnw-WzWxWsnhf1Q-1-266" value="" style="shape=partialRectangle;overflow=hidden;connectable=0;fillColor=none;top=0;left=0;bottom=0;right=0;" vertex="1" parent="omJrnw-WzWxWsnhf1Q-1-265">
          <mxGeometry width="30" height="40" as="geometry">
            <mxRectangle width="30" height="40" as="alternateBounds" />
          </mxGeometry>
        </mxCell>
        <mxCell id="omJrnw-WzWxWsnhf1Q-1-267" value="is_admin INT(11) NOT NULL" style="shape=partialRectangle;overflow=hidden;connectable=0;fillColor=none;top=0;left=0;bottom=0;right=0;align=left;spacingLeft=6;" vertex="1" parent="omJrnw-WzWxWsnhf1Q-1-265">
          <mxGeometry x="30" width="290" height="40" as="geometry">
            <mxRectangle width="290" height="40" as="alternateBounds" />
          </mxGeometry>
        </mxCell>
        <mxCell id="omJrnw-WzWxWsnhf1Q-1-268" value="" style="shape=partialRectangle;collapsible=0;dropTarget=0;pointerEvents=0;fillColor=none;points=[[0,0.5],[1,0.5]];portConstraint=eastwest;top=0;left=0;right=0;bottom=0;" vertex="1" parent="omJrnw-WzWxWsnhf1Q-1-261">
          <mxGeometry y="160" width="320" height="40" as="geometry" />
        </mxCell>
        <mxCell id="omJrnw-WzWxWsnhf1Q-1-269" value="" style="shape=partialRectangle;overflow=hidden;connectable=0;fillColor=none;top=0;left=0;bottom=0;right=0;" vertex="1" parent="omJrnw-WzWxWsnhf1Q-1-268">
          <mxGeometry width="30" height="40" as="geometry">
            <mxRectangle width="30" height="40" as="alternateBounds" />
          </mxGeometry>
        </mxCell>
        <mxCell id="omJrnw-WzWxWsnhf1Q-1-270" value="status ENUM(&#39;ACTIVE&#39;, &#39;INACTIVE&#39;) NOT NULL" style="shape=partialRectangle;overflow=hidden;connectable=0;fillColor=none;top=0;left=0;bottom=0;right=0;align=left;spacingLeft=6;" vertex="1" parent="omJrnw-WzWxWsnhf1Q-1-268">
          <mxGeometry x="30" width="290" height="40" as="geometry">
            <mxRectangle width="290" height="40" as="alternateBounds" />
          </mxGeometry>
        </mxCell>
        <mxCell id="omJrnw-WzWxWsnhf1Q-1-271" value="" style="shape=partialRectangle;collapsible=0;dropTarget=0;pointerEvents=0;fillColor=none;points=[[0,0.5],[1,0.5]];portConstraint=eastwest;top=0;left=0;right=0;bottom=0;" vertex="1" parent="omJrnw-WzWxWsnhf1Q-1-261">
          <mxGeometry y="200" width="320" height="40" as="geometry" />
        </mxCell>
        <mxCell id="omJrnw-WzWxWsnhf1Q-1-272" value="" style="shape=partialRectangle;overflow=hidden;connectable=0;fillColor=none;top=0;left=0;bottom=0;right=0;" vertex="1" parent="omJrnw-WzWxWsnhf1Q-1-271">
          <mxGeometry width="30" height="40" as="geometry">
            <mxRectangle width="30" height="40" as="alternateBounds" />
          </mxGeometry>
        </mxCell>
        <mxCell id="omJrnw-WzWxWsnhf1Q-1-273" value="created_date TIMESTAMP NOT NULL" style="shape=partialRectangle;overflow=hidden;connectable=0;fillColor=none;top=0;left=0;bottom=0;right=0;align=left;spacingLeft=6;" vertex="1" parent="omJrnw-WzWxWsnhf1Q-1-271">
          <mxGeometry x="30" width="290" height="40" as="geometry">
            <mxRectangle width="290" height="40" as="alternateBounds" />
          </mxGeometry>
        </mxCell>
        <mxCell id="omJrnw-WzWxWsnhf1Q-1-274" value="" style="shape=partialRectangle;collapsible=0;dropTarget=0;pointerEvents=0;fillColor=none;points=[[0,0.5],[1,0.5]];portConstraint=eastwest;top=0;left=0;right=0;bottom=0;" vertex="1" parent="omJrnw-WzWxWsnhf1Q-1-261">
          <mxGeometry y="240" width="320" height="40" as="geometry" />
        </mxCell>
        <mxCell id="omJrnw-WzWxWsnhf1Q-1-275" value="" style="shape=partialRectangle;overflow=hidden;connectable=0;fillColor=none;top=0;left=0;bottom=0;right=0;" vertex="1" parent="omJrnw-WzWxWsnhf1Q-1-274">
          <mxGeometry width="30" height="40" as="geometry">
            <mxRectangle width="30" height="40" as="alternateBounds" />
          </mxGeometry>
        </mxCell>
        <mxCell id="omJrnw-WzWxWsnhf1Q-1-276" value="last_updated_date TIMESTAMPÂ NOT NULL" style="shape=partialRectangle;overflow=hidden;connectable=0;fillColor=none;top=0;left=0;bottom=0;right=0;align=left;spacingLeft=6;" vertex="1" parent="omJrnw-WzWxWsnhf1Q-1-274">
          <mxGeometry x="30" width="290" height="40" as="geometry">
            <mxRectangle width="290" height="40" as="alternateBounds" />
          </mxGeometry>
        </mxCell>
        <mxCell id="omJrnw-WzWxWsnhf1Q-1-277" value="" style="shape=partialRectangle;collapsible=0;dropTarget=0;pointerEvents=0;fillColor=none;points=[[0,0.5],[1,0.5]];portConstraint=eastwest;top=0;left=0;right=0;bottom=0;" vertex="1" parent="omJrnw-WzWxWsnhf1Q-1-261">
          <mxGeometry y="280" width="320" height="40" as="geometry" />
        </mxCell>
        <mxCell id="omJrnw-WzWxWsnhf1Q-1-278" value="" style="shape=partialRectangle;overflow=hidden;connectable=0;fillColor=none;top=0;left=0;bottom=0;right=0;" vertex="1" parent="omJrnw-WzWxWsnhf1Q-1-277">
          <mxGeometry width="30" height="40" as="geometry">
            <mxRectangle width="30" height="40" as="alternateBounds" />
          </mxGeometry>
        </mxCell>
        <mxCell id="omJrnw-WzWxWsnhf1Q-1-279" value="created_by VARCHAR(100) NOT NULL" style="shape=partialRectangle;overflow=hidden;connectable=0;fillColor=none;top=0;left=0;bottom=0;right=0;align=left;spacingLeft=6;" vertex="1" parent="omJrnw-WzWxWsnhf1Q-1-277">
          <mxGeometry x="30" width="290" height="40" as="geometry">
            <mxRectangle width="290" height="40" as="alternateBounds" />
          </mxGeometry>
        </mxCell>
        <mxCell id="omJrnw-WzWxWsnhf1Q-1-280" value="" style="shape=partialRectangle;collapsible=0;dropTarget=0;pointerEvents=0;fillColor=none;points=[[0,0.5],[1,0.5]];portConstraint=eastwest;top=0;left=0;right=0;bottom=0;" vertex="1" parent="omJrnw-WzWxWsnhf1Q-1-261">
          <mxGeometry y="320" width="320" height="40" as="geometry" />
        </mxCell>
        <mxCell id="omJrnw-WzWxWsnhf1Q-1-281" value="" style="shape=partialRectangle;overflow=hidden;connectable=0;fillColor=none;top=0;left=0;bottom=0;right=0;" vertex="1" parent="omJrnw-WzWxWsnhf1Q-1-280">
          <mxGeometry width="30" height="40" as="geometry">
            <mxRectangle width="30" height="40" as="alternateBounds" />
          </mxGeometry>
        </mxCell>
        <mxCell id="omJrnw-WzWxWsnhf1Q-1-282" value="last_updated_by VARCHAR(100) NOT NULL" style="shape=partialRectangle;overflow=hidden;connectable=0;fillColor=none;top=0;left=0;bottom=0;right=0;align=left;spacingLeft=6;" vertex="1" parent="omJrnw-WzWxWsnhf1Q-1-280">
          <mxGeometry x="30" width="290" height="40" as="geometry">
            <mxRectangle width="290" height="40" as="alternateBounds" />
          </mxGeometry>
        </mxCell>
        <mxCell id="omJrnw-WzWxWsnhf1Q-1-286" value="" style="endArrow=ERzeroToMany;startArrow=ERmandOne;html=1;rounded=1;curved=0;exitX=0.996;exitY=0.749;exitDx=0;exitDy=0;startFill=0;endFill=0;exitPerimeter=0;entryX=0;entryY=0.5;entryDx=0;entryDy=0;" edge="1" parent="1" source="omJrnw-WzWxWsnhf1Q-1-227" target="omJrnw-WzWxWsnhf1Q-1-283">
          <mxGeometry width="50" height="50" relative="1" as="geometry">
            <mxPoint x="-370" y="550" as="sourcePoint" />
            <mxPoint x="-320" y="500" as="targetPoint" />
            <Array as="points">
              <mxPoint x="-390" y="110" />
              <mxPoint x="-390" y="540" />
              <mxPoint x="-370" y="540" />
            </Array>
          </mxGeometry>
        </mxCell>
        <mxCell id="omJrnw-WzWxWsnhf1Q-1-294" value="" style="endArrow=ERzeroToMany;startArrow=ERmandOne;html=1;rounded=1;curved=0;startFill=0;endFill=0;" edge="1" parent="1">
          <mxGeometry width="50" height="50" relative="1" as="geometry">
            <mxPoint x="120" y="105" as="sourcePoint" />
            <mxPoint x="-320" y="500" as="targetPoint" />
            <Array as="points">
              <mxPoint x="50" y="105" />
              <mxPoint x="50" y="420" />
              <mxPoint x="-360" y="420" />
              <mxPoint x="-360" y="500" />
            </Array>
          </mxGeometry>
        </mxCell>
      </root>
    </mxGraphModel>
  </diagram>
</mxfile>
